<svg width="104" height="26" viewBox="0 0 104 26" fill="none" xmlns="http://www.w3.org/2000/svg">
<path d="M44.934 4.64331V7.84049H40.3708V21.5682H37.0396V7.84049H32.5V4.64331H44.934Z" fill="white"/>
<path d="M55.1402 19.8208C54.5485 20.4212 53.8408 20.8947 53.0603 21.2124C52.2799 21.5301 51.443 21.6853 50.6006 21.6687C49.761 21.6776 48.928 21.5186 48.1506 21.2011C47.3732 20.8835 46.6669 20.4138 46.0731 19.8195C45.4794 19.2251 45.0102 18.5181 44.693 17.7398C44.3758 16.9615 44.2169 16.1277 44.2258 15.2872C44.2169 14.4468 44.3758 13.6131 44.693 12.8349C45.0102 12.0568 45.4795 11.3499 46.0733 10.7557C46.667 10.1615 47.3733 9.69201 48.1508 9.3747C48.9282 9.0574 49.7611 8.89869 50.6006 8.90789C51.4414 8.89816 52.2757 9.05633 53.0546 9.37315C53.8336 9.68997 54.5417 10.1591 55.1375 10.7531C55.7332 11.347 56.2047 12.054 56.5243 12.8325C56.8439 13.611 57.0053 14.4455 56.999 15.2872C57.0161 16.1301 56.86 16.9675 56.5402 17.7474C56.2205 18.5273 55.7439 19.2331 55.1402 19.8208V19.8208ZM48.2718 17.6722C48.5734 17.9831 48.936 18.2281 49.3367 18.3919C49.7375 18.5558 50.1678 18.6348 50.6006 18.6241C51.0346 18.6354 51.4663 18.5575 51.8691 18.3953C52.2718 18.233 52.6371 17.9899 52.9423 17.6808C53.254 17.3671 53.4984 16.993 53.6604 16.5814C53.8224 16.1698 53.8987 15.7294 53.8846 15.2872C53.8987 14.8453 53.8224 14.4053 53.6603 13.994C53.4983 13.5828 53.2539 13.209 52.9423 12.8958C52.6371 12.5867 52.2718 12.3436 51.8691 12.1813C51.4663 12.0191 51.0346 11.9412 50.6006 11.9525C50.1681 11.9404 49.7378 12.0179 49.3366 12.1802C48.9355 12.3426 48.5722 12.5862 48.2696 12.8958C47.961 13.2106 47.7196 13.5849 47.5598 13.996C47.4 14.4071 47.3253 14.8464 47.3403 15.2872C47.3253 15.7284 47.4 16.168 47.5597 16.5794C47.7195 16.9909 47.961 17.3655 48.2696 17.6808L48.2718 17.6722Z" fill="white"/>
<path d="M69.6706 19.8208C68.4585 21.0057 66.8316 21.669 65.1375 21.669C63.4433 21.669 61.8164 21.0057 60.6043 19.8208C60.0032 19.2316 59.5292 18.5253 59.2113 17.7456C58.8935 16.9659 58.7386 16.1292 58.7563 15.2872C58.7473 14.4468 58.9062 13.6131 59.2234 12.8349C59.5406 12.0568 60.0099 11.3499 60.6037 10.7557C61.1974 10.1615 61.9037 9.69201 62.6812 9.3747C63.4586 9.0574 64.2915 8.89869 65.131 8.90789C65.9718 8.89816 66.8061 9.05633 67.5851 9.37315C68.364 9.68997 69.0721 10.1591 69.6679 10.7531C70.2636 11.347 70.7351 12.054 71.0547 12.8325C71.3744 13.611 71.5357 14.4455 71.5294 15.2872C71.5465 16.1301 71.3904 16.9675 71.0706 17.7474C70.7509 18.5273 70.2743 19.2331 69.6706 19.8208V19.8208ZM62.8022 17.6722C63.1048 17.9818 63.468 18.2254 63.8692 18.3877C64.2703 18.5501 64.7007 18.6276 65.1332 18.6155C65.5672 18.6268 65.9989 18.5489 66.4016 18.3867C66.8044 18.2244 67.1696 17.9813 67.4749 17.6722C67.7866 17.3586 68.0309 16.9844 68.193 16.5728C68.355 16.1612 68.4313 15.7208 68.4171 15.2786C68.4312 14.8368 68.3549 14.3967 68.1929 13.9854C68.0308 13.5742 67.7865 13.2004 67.4749 12.8872C67.1696 12.5781 66.8044 12.335 66.4016 12.1727C65.9989 12.0105 65.5672 11.9326 65.1332 11.9439C64.7007 11.9318 64.2703 12.0093 63.8692 12.1716C63.468 12.334 63.1048 12.5776 62.8022 12.8872C62.4936 13.202 62.2521 13.5763 62.0923 13.9874C61.9326 14.3985 61.8579 14.8378 61.8728 15.2786C61.8564 15.7211 61.9302 16.1622 62.0896 16.5752C62.249 16.9882 62.4907 17.3644 62.8 17.6808L62.8022 17.6722Z" fill="white"/>
<path d="M81.3312 9.15546C82.117 9.14765 82.8954 9.30876 83.6138 9.62791C84.3321 9.94706 84.9737 10.4168 85.4952 11.0054C86.6409 12.2309 87.2579 13.8591 87.2123 15.5369C87.257 17.2146 86.6401 18.8425 85.4952 20.0684C84.9737 20.657 84.3321 21.1268 83.6138 21.4459C82.8954 21.7651 82.117 21.9262 81.3312 21.9184C79.6412 21.9184 78.3377 21.3304 77.4205 20.1544V21.5789H74.3039V4.64331H77.4205V10.9087C78.3377 9.73989 79.6412 9.15546 81.3312 9.15546ZM78.3606 17.9799C78.6721 18.295 79.0453 18.5424 79.4567 18.7065C79.8681 18.8707 80.309 18.9481 80.7516 18.9339C81.1958 18.9474 81.6381 18.8697 82.0511 18.7056C82.4642 18.5416 82.8393 18.2946 83.1534 17.9799C83.4712 17.6576 83.7199 17.2737 83.8841 16.8518C84.0484 16.4298 84.1248 15.9787 84.1086 15.5262C84.1245 15.0737 84.048 14.6226 83.8838 14.2007C83.7195 13.7788 83.471 13.3949 83.1534 13.0724C82.8393 12.7578 82.4642 12.5108 82.0511 12.3467C81.6381 12.1827 81.1958 12.105 80.7516 12.1184C80.309 12.1043 79.8681 12.1817 79.4567 12.3458C79.0453 12.51 78.6721 12.7573 78.3606 13.0724C78.0467 13.3969 77.8017 13.7815 77.6401 14.2032C77.4785 14.6248 77.4038 15.0749 77.4205 15.5262C77.4037 15.9775 77.4784 16.4276 77.6399 16.8493C77.8015 17.271 78.0466 17.6556 78.3606 17.9799V17.9799Z" fill="white"/>
<path d="M91.7018 8.22308C91.469 8.22421 91.2384 8.17793 91.0241 8.08707C90.8097 7.9962 90.616 7.86265 90.4548 7.69452C90.2855 7.53362 90.151 7.33957 90.0598 7.12444C89.9686 6.90931 89.9226 6.6777 89.9246 6.44401C89.9235 6.20886 89.9699 5.97592 90.061 5.75918C90.1521 5.54244 90.2861 5.34637 90.4548 5.18276C90.6142 5.01156 90.8073 4.87526 91.0219 4.78244C91.2365 4.68963 91.468 4.6423 91.7018 4.64345C91.9394 4.64046 92.175 4.68685 92.3937 4.77968C92.6124 4.87251 92.8095 5.00976 92.9725 5.18276C93.14 5.34692 93.2728 5.54323 93.3628 5.75995C93.4528 5.97666 93.4981 6.20932 93.4962 6.44401C93.4982 6.6777 93.4522 6.90931 93.361 7.12444C93.2698 7.33957 93.1354 7.53362 92.9661 7.69452C92.8023 7.86405 92.6057 7.99836 92.3884 8.08924C92.171 8.18013 91.9374 8.22567 91.7018 8.22308V8.22308ZM90.1564 21.5683V9.48434H93.2816V21.5683H90.1564Z" fill="white"/>
<path d="M103.991 12.4816H101.263V17.5072C101.248 17.6739 101.269 17.8418 101.322 18.0001C101.376 18.1585 101.463 18.3038 101.576 18.4268C101.836 18.6384 102.16 18.7537 102.495 18.7534C102.995 18.7767 103.497 18.7724 103.997 18.7405V21.5682C101.851 21.8117 100.342 21.6104 99.4704 20.9644C98.599 20.3184 98.1604 19.166 98.1547 17.5072V12.4816H96.0534V9.4842H98.1547V4.6562L101.263 4.64331V9.4842H103.991V12.4816Z" fill="white"/>
<path d="M13 26C20.1797 26 26 20.1797 26 13C26 5.8203 20.1797 0 13 0C5.8203 0 0 5.8203 0 13C0 20.1797 5.8203 26 13 26Z" fill="#2A64FB"/>
<path d="M17.6464 8.30568C17.4935 8.30169 17.3406 8.30974 17.189 8.32976C16.9019 7.87495 16.5443 7.46865 16.1297 7.12605C15.9911 7.0139 15.8464 6.90942 15.6964 6.81309C15.7927 6.66865 16.3704 5.82605 16.8038 5.58531C16.941 5.51827 17.0461 5.39944 17.0957 5.25497C17.1454 5.1105 17.1356 4.95222 17.0686 4.81494C17.0354 4.74697 16.9891 4.6862 16.9325 4.63611C16.8758 4.58601 16.8098 4.54758 16.7382 4.52299C16.5938 4.47332 16.4355 4.48309 16.2982 4.55013C15.5519 4.93531 14.7093 6.16309 14.7093 6.16309C14.6907 6.20625 14.6664 6.24674 14.6371 6.28346C14.0969 6.08835 13.5263 5.99054 12.9519 5.99457C12.48 5.99627 12.0104 6.06104 11.5556 6.18716C11.5556 6.16309 10.7371 4.95939 9.94266 4.59828C9.80538 4.53123 9.6471 4.52147 9.50263 4.57113C9.35816 4.6208 9.23933 4.72582 9.17229 4.86309C9.10525 5.00036 9.09548 5.15865 9.14515 5.30312C9.19481 5.44759 9.29983 5.56642 9.4371 5.63346C9.79821 5.80198 10.2315 6.35568 10.4482 6.66865C10.2315 6.81309 10.0149 6.95753 9.79821 7.12605C9.37 7.4614 9.00342 7.86871 8.71488 8.32976C8.61858 8.32976 8.49821 8.30568 8.37784 8.30568H8.32969C7.72654 8.30634 7.12977 8.42923 6.57543 8.66695C6.02109 8.90467 5.52068 9.25227 5.10443 9.68878C4.68818 10.1253 4.36472 10.6416 4.15358 11.2066C3.94244 11.7716 3.84801 12.3735 3.87599 12.9761C3.9044 13.5913 4.06067 14.1939 4.33485 14.7455C4.60903 15.297 4.9951 15.7854 5.46846 16.1795C5.94181 16.5736 6.49208 16.8647 7.08418 17.0344C7.67628 17.2041 8.29724 17.2485 8.90747 17.1649C9.46729 18.4077 10.8173 19.9475 11.3333 20.404C11.5517 20.6422 11.512 20.5826 11.77 20.8605C12.1202 21.2376 12.1868 21.2575 13.0001 22.5575C13.4968 21.714 13.8342 21.3567 14.2519 20.8964C14.3964 20.7038 14.5715 20.5484 14.6678 20.404C15.7198 19.2925 16.5296 18.4019 17.0927 17.1409C17.0927 17.1168 17.0927 17.1168 17.1167 17.0927C17.2999 17.1218 17.485 17.1378 17.6704 17.1409C18.8474 17.1335 19.9749 16.6659 20.8116 15.8382C21.6484 15.0104 22.1281 13.8881 22.1482 12.7112C22.1134 11.5372 21.6249 10.4224 20.7855 9.60086C19.946 8.77936 18.8209 8.31513 17.6464 8.30568ZM10.9428 8.20094C11.5962 7.67063 12.1345 7.46097 12.976 7.46181C13.8168 7.46503 14.3538 7.67423 15.0092 8.20094C15.2171 8.36064 15.3635 8.50708 15.5232 8.71494C14.2714 9.29272 13.6019 10.352 13.0001 11.1946C12.3741 10.352 11.7047 9.26865 10.4287 8.69087C10.5973 8.52235 10.7261 8.39353 10.9428 8.20094ZM13.9533 18.9154C13.9533 18.9154 13.6558 19.1403 13.4571 19.2726C13.4525 19.2757 13.4478 19.2788 13.4431 19.2819C13.1413 19.4812 12.7494 19.4676 12.4448 19.2726V19.2726L11.9883 18.9154C11.3021 18.2771 10.7781 17.5506 10.3663 16.7088C11.1065 16.3418 11.6099 15.954 12.1575 15.3353L12.5186 14.9742L11.5315 13.6261L10.9778 14.2038C10.0871 15.1427 9.19636 15.6242 8.35377 15.6242C7.61313 15.6242 6.90282 15.33 6.37911 14.8063C5.85539 14.2826 5.56118 13.5723 5.56118 12.8316C5.56118 12.091 5.85539 11.3807 6.37911 10.8569C6.90282 10.3332 7.61313 10.039 8.35377 10.039C8.99788 10.0593 9.62003 10.2779 10.1352 10.6649C10.9297 11.2913 11.5924 12.0685 12.0853 12.952L12.2297 13.1927C12.3019 13.289 13.4828 15.6496 15.6254 16.6847C15.2054 17.5349 14.6475 18.2694 13.9533 18.9154ZM17.5982 15.5761C17.1888 15.5659 16.7864 15.4674 16.4186 15.2872C15.8581 14.9709 15.3538 14.5642 14.926 14.0835C14.5579 13.6726 14.2275 13.2295 13.939 12.7594C14.4927 11.8686 15.889 9.96679 17.6223 9.99087C17.989 9.99245 18.3518 10.0662 18.6901 10.208C19.0283 10.3498 19.3352 10.5569 19.5934 10.8173C19.8516 11.0777 20.056 11.3865 20.1949 11.7259C20.3338 12.0653 20.4044 12.4288 20.4028 12.7955C20.4013 13.1622 20.3275 13.5251 20.1857 13.8633C20.0439 14.2015 19.8368 14.5084 19.5764 14.7666C19.316 15.0248 19.0072 15.2292 18.6678 15.3681C18.3284 15.507 17.9649 15.5776 17.5982 15.5761Z" fill="white"/>
</svg>
