<svg width="103" height="26" viewBox="0 0 103 26" fill="none" xmlns="http://www.w3.org/2000/svg">
<path d="M96.7827 4.35742V18.6574C96.7827 19.9815 97.3838 20.6315 98.634 20.6315C98.9878 20.6349 99.339 20.5695 99.6679 20.4389L100.101 20.2222V22.7259L99.5477 22.9426C99.0861 23.0725 98.6086 23.1373 98.1291 23.1352C95.6046 23.1352 94.186 21.6908 94.186 18.9222V4.35742" fill="#F4F9FF"/>
<path d="M37.1313 7.24621H31.6494V4.45361H45.5223V7.22213H40.0164V22.8221H37.1072L37.1313 7.24621V7.24621Z" fill="#F4F9FF"/>
<path d="M49.3212 10.0148C50.6146 10.0148 51.879 10.3989 52.9545 11.1184C54.0299 11.8379 54.8681 12.8606 55.3631 14.0571C55.8581 15.2536 55.9876 16.5702 55.7353 17.8405C55.4829 19.1107 54.8601 20.2774 53.9455 21.1932C53.0309 22.109 51.8656 22.7326 50.597 22.9853C49.3284 23.238 48.0135 23.1083 46.8185 22.6127C45.6235 22.1171 44.6022 21.2778 43.8836 20.2009C43.165 19.1241 42.7814 17.8581 42.7814 16.563C42.775 15.7013 42.9398 14.8469 43.2662 14.0495C43.5926 13.2522 44.0741 12.5278 44.6826 11.9185C45.2912 11.3091 46.0146 10.827 46.811 10.5002C47.6073 10.1734 48.4606 10.0084 49.3212 10.0148ZM53.2402 16.563C53.2402 14.1796 51.5331 12.5185 49.3212 12.5185C47.1092 12.5185 45.4021 14.1556 45.4021 16.563C45.4021 18.9704 47.1092 20.6074 49.3212 20.6074C51.5331 20.6074 53.2402 18.9463 53.2402 16.563Z" fill="#F4F9FF"/>
<path d="M89.6419 8.2334C90.0554 8.23655 90.4511 8.40242 90.7435 8.6952C91.0359 8.98798 91.2016 9.38417 91.2047 9.79821C91.2053 10.0039 91.1654 10.2077 91.087 10.3978C91.0087 10.5879 90.8936 10.7607 90.7484 10.9061C90.6031 11.0516 90.4306 11.1668 90.2407 11.2452C90.0508 11.3236 89.8473 11.3637 89.6419 11.363C89.2274 11.363 88.8299 11.1982 88.5368 10.9047C88.2438 10.6112 88.0791 10.2132 88.0791 9.79821C88.0791 9.3832 88.2438 8.98518 88.5368 8.69172C88.8299 8.39826 89.2274 8.2334 89.6419 8.2334Z" fill="#F4F9FF"/>
<path d="M88.3433 11.7964L90.8438 13.8186L90.988 22.8464H88.3433V11.7964Z" fill="#F4F9FF"/>
<path d="M83.6549 14.0112C83.2182 13.5699 82.6823 13.2397 82.0921 13.0482C82.5198 12.8542 82.9041 12.5758 83.2221 12.2297C83.9603 11.4607 84.3663 10.4315 84.3521 9.36492C84.3521 6.71677 82.1401 4.50195 78.8703 4.50195H71.5371V22.8464H79.3031C82.8374 22.8464 85.3139 20.3668 85.3139 17.4538C85.2928 16.7958 85.1342 16.1495 84.8485 15.5566C84.5628 14.9636 84.1562 14.4372 83.6549 14.0112V14.0112ZM79.1828 20.3668H74.278V14.3482L74.3021 12.0131L74.278 6.95751H78.7501C80.3129 6.95751 81.5631 8.16121 81.5631 9.60566C81.5802 10.0068 81.4941 10.4057 81.3131 10.764C81.132 11.1223 80.8621 11.428 80.5293 11.652L80.361 14.5168C80.9432 14.7168 81.4463 15.0981 81.7967 15.6049C82.1471 16.1116 82.3264 16.7173 82.3085 17.3334C82.3325 19.0427 81.0823 20.3668 79.1828 20.3668Z" fill="#F4F9FF"/>
<path d="M63.579 10.0148C64.8724 10.0148 66.1368 10.3989 67.2123 11.1184C68.2877 11.8379 69.1259 12.8606 69.6209 14.0571C70.1159 15.2536 70.2454 16.5702 69.9931 17.8405C69.7407 19.1107 69.1179 20.2774 68.2033 21.1932C67.2887 22.109 66.1234 22.7326 64.8548 22.9853C63.5862 23.238 62.2713 23.1083 61.0763 22.6127C59.8813 22.1171 58.86 21.2778 58.1414 20.2009C57.4228 19.1241 57.0392 17.8581 57.0392 16.563C57.0328 15.7013 57.1976 14.8469 57.524 14.0495C57.8504 13.2522 58.3319 12.5278 58.9404 11.9185C59.549 11.3091 60.2725 10.827 61.0688 10.5002C61.8651 10.1734 62.7184 10.0084 63.579 10.0148ZM67.498 16.563C67.498 14.1796 65.791 12.5185 63.579 12.5185C61.367 12.5185 59.6599 14.1556 59.6599 16.563C59.6599 18.9704 61.367 20.6074 63.579 20.6074C65.791 20.6074 67.498 18.9463 67.498 16.563Z" fill="#F4F9FF"/>
<path d="M102 4.8147L97.6961 5.72951L98.3212 6.40359L90.6514 13.4091L84.2319 8.35359L71.5371 18.7777V22.0036L84.304 11.4832L90.8919 16.7314L100.028 8.32951L100.653 9.00359L102 4.8147Z" fill="#38D102"/>
<path fill-rule="evenodd" clip-rule="evenodd" d="M25.9666 13C25.9666 20.1797 20.1538 26 12.9833 26C5.81283 26 0 20.1797 0 13C0 5.8203 5.81283 0 12.9833 0C20.1538 0 25.9666 5.8203 25.9666 13ZM17.1668 8.32963C17.3182 8.30961 17.471 8.30156 17.6236 8.30555C18.7966 8.315 19.9203 8.77923 20.7587 9.60073C21.5971 10.4222 22.0849 11.5371 22.1197 12.7111C22.0996 13.888 21.6205 15.0103 20.7848 15.838C19.9492 16.6658 18.8232 17.1334 17.6477 17.1407C17.4625 17.1377 17.2777 17.1216 17.0947 17.0926C17.0809 17.1064 17.075 17.1123 17.0725 17.1194C17.0707 17.1246 17.0707 17.1305 17.0707 17.1407C16.5083 18.4017 15.6506 19.5083 14.5702 20.3667C14.5344 20.4204 14.4986 20.4809 14.4603 20.5455C14.3957 20.6545 14.3241 20.7754 14.2336 20.8963C13.8558 21.4784 13.438 22.0334 12.9833 22.5574C12.5138 22.0456 12.095 21.4893 11.7331 20.8963C11.6016 20.7193 11.4811 20.5344 11.3724 20.3426C10.3044 19.4974 9.45508 18.4076 8.89597 17.1648C8.28652 17.2484 7.66636 17.2039 7.07502 17.0343C6.48368 16.8646 5.93412 16.5734 5.46137 16.1794C4.98862 15.7853 4.60305 15.2969 4.32922 14.7454C4.05539 14.1938 3.89932 13.5912 3.87095 12.9759C3.843 12.3734 3.93731 11.7715 4.14818 11.2065C4.35905 10.6415 4.68209 10.1251 5.09781 9.68865C5.51353 9.25214 6.01329 8.90454 6.56692 8.66682C7.12055 8.4291 7.71655 8.3062 8.31894 8.30555H8.36702C8.43048 8.30555 8.49394 8.31226 8.55386 8.31859C8.60745 8.32426 8.65822 8.32963 8.70363 8.32963C8.99179 7.86858 9.35791 7.46127 9.78557 7.12592C10.002 6.95741 10.2183 6.81297 10.4347 6.66853L10.4347 6.66852C10.2183 6.35555 9.78557 5.80185 9.42492 5.63333C9.28782 5.56629 9.18294 5.44746 9.13334 5.30299C9.08374 5.15852 9.09349 5.00023 9.16045 4.86296C9.2274 4.72569 9.34608 4.62067 9.49036 4.571C9.63465 4.52134 9.79273 4.5311 9.92983 4.59815C10.7233 4.95926 11.5407 6.16296 11.5407 6.18703C11.9949 6.06091 12.4639 5.99614 12.9352 5.99444C13.5089 5.99041 14.0787 6.08822 14.6182 6.28333C14.6475 6.24661 14.6718 6.20612 14.6904 6.16296C14.6904 6.16296 15.5319 4.93518 16.2772 4.55C16.4143 4.48296 16.5724 4.47319 16.7167 4.52286C16.7881 4.54745 16.854 4.58588 16.9107 4.63598C16.9673 4.68607 17.0135 4.74684 17.0466 4.81481C17.1136 4.95209 17.1233 5.11037 17.0737 5.25484C17.0241 5.39931 16.9192 5.51814 16.7821 5.58518C16.3494 5.82592 15.7723 6.66852 15.6761 6.81296C15.826 6.90929 15.9705 7.01377 16.1089 7.12592C16.523 7.46852 16.8801 7.87482 17.1668 8.32963ZM12.9593 7.34259C12.1188 7.34175 11.3037 7.6308 10.6511 8.16111C10.4347 8.3537 10.2664 8.52222 10.0981 8.69074C11.3724 9.26852 12.3582 10.3518 12.9833 11.1944C13.5844 10.3518 14.5702 9.29259 15.8204 8.71481C15.6609 8.50695 15.475 8.32081 15.2674 8.16111C14.6128 7.6344 13.799 7.34581 12.9593 7.34259ZM11.8533 19.0667H14.0412C14.7345 18.4207 15.3048 17.6539 15.7242 16.8037C13.781 15.8636 12.5317 13.7323 12.2646 13.2765C12.2375 13.2304 12.2206 13.2014 12.2139 13.1926L12.0697 12.9518C11.5774 12.0684 10.9156 11.2911 10.1222 10.6648C9.60761 10.2777 8.98626 10.0591 8.34298 10.0389C7.60329 10.0389 6.89389 10.3331 6.37085 10.8568C5.84781 11.3805 5.55397 12.0908 5.55397 12.8315C5.55397 13.5721 5.84781 14.2824 6.37085 14.8061C6.89389 15.3299 7.60329 15.6241 8.34298 15.6241C9.18449 15.6241 10.0741 15.1426 10.9637 14.2037L11.5167 13.6259L12.5024 14.9741L12.1418 15.3352C11.5949 15.9539 10.9336 16.4608 10.1943 16.8278C10.6056 17.6695 11.168 18.4284 11.8533 19.0667ZM16.3974 15.287C16.7648 15.4672 17.1666 15.5658 17.5756 15.5759C17.9418 15.5775 18.3048 15.5068 18.6438 15.368C18.9828 15.2291 19.2911 15.0247 19.5512 14.7665C19.8113 14.5083 20.0181 14.2013 20.1597 13.8631C20.3013 13.5249 20.375 13.1621 20.3766 12.7954C20.3782 12.4286 20.3076 12.0652 20.1689 11.7258C20.0302 11.3864 19.8261 11.0776 19.5682 10.8172C19.3103 10.5567 19.0038 10.3497 18.666 10.2079C18.3282 10.0661 17.9659 9.99232 17.5996 9.99074C15.8685 9.96666 14.474 11.8685 13.921 12.7593C14.2092 13.2294 14.5391 13.6725 14.9068 14.0833C15.334 14.5641 15.8377 14.9708 16.3974 15.287Z" fill="#F4F9FF"/>
</svg>
